<?xml version="1.0" standalone="no"?>
<!DOCTYPE svg PUBLIC "-//W3C//DTD SVG 20010904//EN"
 "http://www.w3.org/TR/2001/REC-SVG-20010904/DTD/svg10.dtd">
<svg version="1.0" xmlns="http://www.w3.org/2000/svg"
 width="903.000000pt" height="903.000000pt" viewBox="0 0 903.000000 903.000000"
 preserveAspectRatio="xMidYMid meet">
<metadata>
Created by potrace 1.14, written by Peter Selinger 2001-2017
</metadata>
<g transform="translate(0.000000,903.000000) scale(0.100000,-0.100000)"
fill="#000000" stroke="none">
<path d="M6766 5464 c-3 -9 14 -57 42 -112 l47 -97 375 -2 c206 -1 407 -2 445
-3 l70 0 -1 -152 c-1 -84 -2 -157 -3 -162 0 -4 -20 -6 -43 -2 -114 16 -198 21
-363 21 -162 0 -187 -2 -246 -23 -112 -39 -183 -119 -182 -205 2 -118 215
-347 322 -347 42 0 94 29 112 62 14 26 19 133 9 189 -8 42 0 61 27 67 29 6
315 11 344 6 l25 -6 0 -346 -1 -347 110 -32 c61 -18 116 -31 123 -28 10 4 12
139 12 651 0 356 1 649 3 651 3 2 88 5 191 6 l187 2 -2 -619 c0 -340 3 -622 8
-626 18 -17 226 -71 236 -61 6 6 10 79 9 178 -3 684 -3 1116 0 1119 2 2 61 4
131 5 103 2 127 5 132 17 3 9 -16 60 -42 114 l-48 98 -1011 0 c-915 0 -1012
-2 -1018 -16z"/>
<path d="M415 5452 l-80 -3 0 -649 0 -650 200 0 200 0 -1 275 c-1 274 -1 275
20 276 73 3 634 4 649 0 16 -3 17 -24 17 -277 l0 -274 195 0 195 0 0 650 c0
513 -3 650 -12 650 -77 3 -1324 4 -1383 2z m995 -372 l0 -180 -335 0 -335 0 0
180 0 180 335 0 335 0 0 -180z"/>
<path d="M2055 5450 l-100 -5 0 -645 0 -645 198 -3 197 -2 0 555 0 555 359 0
359 0 0 -155 -1 -154 -96 0 c-53 0 -201 0 -330 0 l-233 -1 63 -72 c35 -40 66
-75 69 -78 5 -4 106 -120 380 -434 14 -16 36 -41 50 -56 14 -15 51 -57 84 -94
l58 -66 230 0 230 0 -63 73 c-35 39 -66 74 -69 77 -3 3 -34 39 -70 80 -35 41
-67 77 -70 80 -3 3 -63 71 -134 153 l-128 147 206 0 206 0 0 348 0 347 -648 0
c-356 0 -692 -2 -747 -5z"/>
<path d="M3645 4803 l0 -648 648 -3 c517 -2 651 0 660 11 7 7 45 50 85 95 l74
82 -54 1 c-29 0 -269 1 -533 2 l-480 2 -1 458 0 457 450 0 451 0 83 95 83 95
-733 0 -733 0 0 -647z"/>
<path d="M5229 5423 c0 -16 -1 -308 -2 -651 l-2 -622 195 2 195 3 1 265 c1
146 2 270 3 275 1 7 112 10 329 9 180 -1 330 -2 333 -3 3 0 6 -119 7 -263 0
-145 1 -269 1 -275 1 -10 47 -13 196 -13 l195 0 0 650 0 650 -195 0 c-149 0
-195 -3 -196 -12 0 -7 -2 -130 -2 -273 l-2 -260 -35 -2 c-19 -2 -169 -4 -333
-5 -258 -3 -297 -1 -298 12 -1 8 -2 132 -3 275 l-1 260 -192 3 -193 2 -1 -27z"/>
<path d="M317 3736 c-4 -10 -3 -24 2 -30 20 -25 22 -54 4 -59 -13 -4 -12 -5 6
-6 16 -1 21 -5 17 -16 -4 -10 1 -15 16 -15 16 0 18 3 9 13 -6 8 -19 40 -29 73
-14 45 -20 55 -25 40z"/>
<path d="M407 3742 c8 -5 11 -29 9 -70 -3 -58 -2 -62 18 -62 13 0 17 3 9 8
-14 9 -12 44 2 54 6 5 6 8 -1 8 -7 0 -11 14 -10 30 1 26 5 30 28 30 23 0 28
-4 28 -26 0 -14 4 -23 10 -19 16 10 12 42 -6 49 -23 9 -101 7 -87 -2z"/>
<path d="M558 3723 c-21 -38 -13 -87 18 -104 13 -7 27 -9 31 -6 3 4 -1 7 -11
7 -21 0 -39 45 -31 81 8 34 40 47 64 25 15 -14 17 -14 17 2 0 12 -10 18 -36
20 -30 2 -38 -2 -52 -25z"/>
<path d="M685 3680 c0 -61 2 -70 18 -70 11 0 15 5 11 11 -3 6 -6 38 -5 70 1
41 -3 59 -11 59 -9 0 -13 -21 -13 -70z"/>
<path d="M755 3742 c15 -10 12 -41 -5 -52 -13 -9 -13 -10 1 -10 18 0 22 -51 5
-62 -6 -4 3 -8 19 -8 20 0 26 3 17 9 -16 10 -14 112 2 123 6 4 -2 8 -19 8 -16
0 -25 -4 -20 -8z"/>
<path d="M838 3729 c5 -12 5 -43 2 -70 -5 -41 -4 -49 9 -49 13 0 16 13 16 70
0 59 -3 70 -17 70 -13 0 -16 -5 -10 -21z"/>
<path d="M900 3741 c0 -4 11 -6 24 -4 23 5 23 3 21 -61 -2 -44 1 -66 9 -66 7
0 11 24 11 70 l0 70 -32 0 c-18 0 -33 -4 -33 -9z"/>
<path d="M992 3736 c7 -8 15 -12 17 -11 5 6 -10 25 -20 25 -5 0 -4 -6 3 -14z"/>
<path d="M1036 3742 c14 -9 15 -102 1 -119 -7 -10 -2 -13 19 -13 16 0 25 4 19
8 -5 4 -10 33 -11 64 0 44 3 58 15 61 9 3 0 5 -19 6 -19 0 -30 -3 -24 -7z"/>
<path d="M1101 3747 c2 -1 12 -9 22 -16 15 -12 17 -12 11 3 -3 9 -13 16 -22
16 -8 0 -13 -1 -11 -3z"/>
<path d="M1192 3741 c-30 -18 -30 -121 -1 -121 6 0 6 7 1 18 -4 9 -7 27 -6 40
1 12 2 28 3 36 2 24 40 30 62 10 16 -14 20 -15 17 -4 -5 25 -50 38 -76 21z"/>
<path d="M1291 3733 c0 -11 3 -13 6 -5 2 6 13 12 23 12 15 0 18 -8 18 -57 -1
-32 -6 -61 -12 -65 -6 -4 3 -8 19 -8 17 0 25 4 20 8 -14 9 -14 115 -1 124 6 4
-8 8 -31 8 -35 0 -43 -3 -42 -17z"/>
<path d="M1386 3735 c4 -8 8 -15 10 -15 2 0 4 7 4 15 0 8 -4 15 -10 15 -5 0
-7 -7 -4 -15z"/>
<path d="M1428 3743 c7 -3 12 -25 12 -59 0 -49 3 -56 26 -66 28 -13 55 -3 61
23 3 8 0 7 -7 -3 -13 -21 -45 -24 -57 -5 -4 6 -6 36 -5 65 2 48 0 52 -21 51
-12 0 -16 -3 -9 -6z"/>
<path d="M1528 3743 c7 -3 16 -2 19 1 4 3 -2 6 -13 5 -11 0 -14 -3 -6 -6z"/>
<path d="M1585 3680 c0 -56 3 -70 15 -70 12 0 14 12 12 66 l-4 65 29 -3 c32
-3 43 -33 19 -51 -13 -11 -13 -16 -1 -44 13 -31 35 -45 35 -23 0 6 -5 10 -10
10 -17 0 -29 43 -15 55 40 33 16 65 -47 65 l-33 0 0 -70z"/>
<path d="M1757 3736 c-3 -7 -2 -17 2 -22 5 -5 11 -21 15 -36 5 -22 2 -27 -16
-31 -15 -3 -13 -4 5 -2 23 1 28 -2 24 -17 -3 -11 0 -18 9 -18 8 0 14 2 14 5 0
10 -42 135 -45 135 -1 0 -5 -6 -8 -14z"/>
<path d="M1855 3680 c0 -68 1 -70 25 -70 18 0 21 3 11 9 -16 10 -21 119 -6
125 6 3 1 5 -10 5 -18 1 -20 -5 -20 -69z"/>
<path d="M2197 3738 c11 -18 11 -101 0 -115 -7 -9 -4 -13 11 -13 17 0 20 5 16
27 -3 15 0 30 8 34 10 7 10 9 1 9 -8 0 -13 13 -13 31 0 27 3 30 27 27 19 -2
29 -10 33 -28 5 -23 6 -24 14 -5 10 27 -17 45 -67 45 -28 0 -36 -3 -30 -12z"/>
<path d="M2338 3680 c-3 -69 -3 -70 22 -69 14 0 19 3 13 6 -18 7 -17 63 1 63
8 0 16 -6 19 -12 3 -7 5 -4 4 8 -1 15 -6 20 -19 16 -14 -3 -18 2 -18 27 0 62
-18 29 -22 -39z"/>
<path d="M2370 3746 c0 -2 14 -6 30 -8 17 -3 30 -1 30 4 0 4 -13 8 -30 8 -16
0 -30 -2 -30 -4z"/>
<path d="M2496 3713 c19 -20 34 -43 34 -50 0 -7 4 -13 8 -13 5 0 14 -10 20
-22 10 -22 11 -21 9 9 0 17 -4 30 -7 28 -3 -2 -19 16 -35 40 -17 25 -37 45
-46 45 -12 0 -7 -10 17 -37z"/>
<path d="M2558 3743 c7 -3 16 -2 19 1 4 3 -2 6 -13 5 -11 0 -14 -3 -6 -6z"/>
<path d="M2618 3741 c10 -6 13 -26 10 -70 -2 -46 0 -61 11 -61 9 0 12 10 9 35
-2 19 -1 35 2 35 3 0 4 16 2 35 -3 28 -9 35 -26 35 -15 0 -17 -3 -8 -9z"/>
<path d="M2680 3746 c0 -2 9 -6 20 -9 11 -3 18 -1 14 4 -5 9 -34 13 -34 5z"/>
<path d="M2760 3718 c4 -18 11 -51 16 -73 6 -36 8 -38 14 -15 4 14 2 31 -4 39
-8 11 -8 13 0 8 6 -3 11 0 11 8 0 8 -4 12 -8 10 -3 -3 -9 6 -11 20 -3 13 0 26
6 29 6 2 1 5 -11 5 -19 1 -21 -2 -13 -31z"/>
<path d="M2805 3740 c-4 -6 -1 -18 7 -27 7 -9 11 -18 10 -20 -5 -5 9 -85 14
-80 9 8 10 78 2 83 -4 3 -8 14 -8 24 0 22 -16 35 -25 20z"/>
<path d="M2848 3743 c7 -3 16 -2 19 1 4 3 -2 6 -13 5 -11 0 -14 -3 -6 -6z"/>
<path d="M3039 3713 c4 -21 4 -53 0 -70 -5 -25 -3 -33 7 -33 14 0 18 28 14 98
-1 30 1 32 30 32 24 0 31 -4 29 -17 -3 -30 1 -39 10 -24 18 28 -6 51 -53 51
l-43 0 6 -37z"/>
<path d="M3179 3718 c4 -18 4 -50 0 -70 -6 -36 -5 -38 20 -38 18 0 22 3 13 9
-10 6 -13 26 -10 70 2 51 0 61 -13 61 -13 0 -15 -6 -10 -32z"/>
<path d="M3287 3742 c8 -5 11 -29 9 -70 -3 -58 -2 -62 18 -62 11 0 16 4 11 8
-15 11 -15 62 0 62 7 0 16 -6 18 -12 3 -7 6 -3 6 9 1 16 -4 20 -18 16 -16 -4
-18 0 -16 26 2 26 -1 31 -19 31 -14 0 -17 -3 -9 -8z"/>
<path d="M3353 3743 c16 -3 25 -9 21 -15 -4 -7 -2 -8 5 -4 18 12 2 26 -27 25
l-27 -2 28 -4z"/>
<path d="M3610 3735 c-16 -19 -17 -92 -2 -107 8 -8 10 -1 6 30 -8 73 35 110
70 60 9 -12 16 -17 16 -11 0 36 -66 57 -90 28z"/>
<path d="M3747 3732 c-20 -22 -22 -85 -4 -101 11 -9 13 -4 7 27 -8 44 6 82 31
82 31 0 44 -44 29 -100 -8 -32 -8 -33 5 -16 24 32 22 94 -3 114 -22 17 -46 15
-65 -6z"/>
<path d="M3877 3735 c3 -9 8 -14 11 -11 2 3 19 -16 36 -42 43 -66 44 -67 51
-60 9 8 -77 128 -92 128 -7 0 -10 -6 -6 -15z"/>
<path d="M4025 3730 c-8 -27 1 -39 42 -57 29 -12 34 -18 31 -38 -3 -14 -1 -22
3 -19 5 3 9 16 9 30 0 19 -9 28 -40 40 -28 11 -40 22 -38 33 4 19 46 27 61 12
6 -6 16 -11 22 -11 5 0 1 7 -9 15 -29 22 -73 19 -81 -5z"/>
<path d="M4155 3680 c0 -49 4 -70 13 -70 8 0 11 12 10 33 -3 28 0 32 20 31 12
0 21 4 19 10 -2 6 -12 11 -22 11 -23 0 -28 32 -7 45 14 8 13 9 -8 10 -24 0
-25 -2 -25 -70z"/>
<path d="M4230 3741 c0 -6 4 -12 8 -15 5 -3 9 1 9 9 0 8 -4 15 -9 15 -4 0 -8
-4 -8 -9z"/>
<path d="M4286 3744 c6 -3 9 -31 8 -69 -1 -46 2 -65 10 -65 8 0 11 11 8 30 -3
21 0 30 9 30 12 0 12 2 1 9 -8 4 -12 19 -10 32 2 18 9 24 28 24 29 0 40 -30
17 -48 -13 -10 -13 -16 -1 -44 13 -31 34 -45 34 -23 0 6 -3 10 -7 10 -5 0 -13
11 -19 24 -9 19 -8 25 7 34 20 13 19 39 -2 53 -8 5 -32 8 -54 8 -22 0 -35 -3
-29 -5z"/>
<path d="M4416 3742 c5 -4 19 -35 30 -70 20 -60 21 -61 32 -37 7 15 8 24 3 21
-10 -7 -43 79 -33 88 3 3 -6 6 -19 6 -13 0 -19 -4 -13 -8z"/>
<path d="M4498 3743 c7 -3 16 -2 19 1 4 3 -2 6 -13 5 -11 0 -14 -3 -6 -6z"/>
<path d="M4587 3736 c-4 -9 0 -31 8 -47 9 -16 13 -34 10 -39 -3 -6 -1 -10 5
-10 7 0 10 -7 6 -15 -4 -11 1 -15 17 -15 12 0 18 4 12 8 -5 4 -12 14 -14 22
-2 8 -12 37 -21 64 -12 37 -18 45 -23 32z"/>
<path d="M4666 3734 c-6 -15 -4 -15 11 -3 10 7 20 15 22 16 2 2 -3 3 -11 3 -9
0 -19 -7 -22 -16z"/>
<path d="M4708 3680 c-2 -57 0 -70 12 -70 12 0 14 12 12 64 -4 64 -3 65 25 69
24 3 23 4 -9 6 l-36 1 -4 -70z"/>
<path d="M4806 3742 c7 -4 10 -32 9 -69 -3 -59 -2 -63 18 -63 16 0 18 3 9 9
-10 6 -13 26 -10 70 3 56 1 61 -17 61 -12 0 -16 -3 -9 -8z"/>
<path d="M4892 3725 c-18 -38 -15 -70 8 -96 l21 -24 -13 30 c-22 49 -10 105
23 105 31 0 51 -81 26 -106 -4 -4 -7 -12 -7 -18 0 -6 7 -3 15 5 19 19 22 77 6
107 -17 32 -64 30 -79 -3z"/>
<path d="M5030 3737 c8 -7 32 -38 54 -69 21 -32 39 -58 40 -58 1 0 2 11 2 24
0 14 -3 23 -7 21 -3 -3 -21 18 -38 45 -18 28 -40 50 -49 50 -15 -1 -15 -2 -2
-13z"/>
<path d="M5305 3680 c0 -56 3 -70 15 -70 12 0 15 14 15 70 0 56 -3 70 -15 70
-12 0 -15 -14 -15 -70z"/>
<path d="M5618 3680 c3 -52 7 -70 18 -70 10 0 11 6 5 23 -5 14 -5 30 0 40 7
11 6 17 0 17 -10 0 -7 32 4 50 3 6 -2 10 -12 10 -16 0 -18 -8 -15 -70z"/>
<path d="M5685 3742 c20 -14 16 -42 -7 -52 -22 -9 -22 -9 -2 -9 17 -1 22 -7
21 -28 -1 -16 -6 -31 -12 -35 -5 -4 4 -8 20 -8 20 0 26 3 17 9 -10 6 -13 26
-10 70 3 56 1 61 -17 61 -11 0 -15 -4 -10 -8z"/>
<path d="M5797 3736 c-4 -10 -3 -24 2 -30 20 -25 22 -54 4 -59 -13 -4 -12 -5
6 -6 16 -1 21 -5 17 -16 -3 -9 0 -15 9 -15 8 0 15 1 15 3 0 1 -11 33 -23 71
-17 52 -25 65 -30 52z"/>
<path d="M5886 3742 c7 -4 11 -32 9 -69 -1 -58 0 -63 19 -63 14 0 17 3 9 8
-15 10 -11 41 8 53 12 7 12 9 -1 9 -10 0 -16 11 -16 30 -2 26 2 30 26 30 33 0
44 -21 26 -46 -11 -15 -11 -20 0 -31 16 -16 9 -40 -14 -46 -15 -4 -15 -5 -1
-6 27 -2 44 26 31 53 -7 16 -7 27 0 34 5 5 7 19 3 31 -5 18 -14 21 -58 21 -29
0 -47 -4 -41 -8z"/>
<path d="M6026 3742 c11 -8 13 -101 2 -117 -4 -7 4 -12 20 -13 15 -1 22 2 17
6 -14 10 -16 103 -3 119 8 10 4 13 -18 13 -16 0 -24 -4 -18 -8z"/>
<path d="M6095 3739 c-11 -17 1 -21 15 -4 8 9 8 15 2 15 -6 0 -14 -5 -17 -11z"/>
<path d="M6135 3680 c0 -61 2 -70 18 -70 13 0 16 4 10 18 -10 21 -10 93 1 110
5 8 1 12 -11 12 -16 0 -18 -9 -18 -70z"/>
<path d="M6185 3740 c3 -5 8 -10 11 -10 2 0 4 5 4 10 0 6 -5 10 -11 10 -5 0
-7 -4 -4 -10z"/>
<path d="M6267 3738 c-2 -7 2 -28 10 -46 7 -18 11 -37 8 -42 -4 -6 -1 -10 5
-10 7 0 10 -7 6 -15 -4 -10 1 -15 16 -15 15 0 18 3 10 13 -5 6 -18 38 -27 70
-17 60 -21 65 -28 45z"/>
<path d="M6350 3739 c0 -5 5 -7 10 -4 6 3 10 8 10 11 0 2 -4 4 -10 4 -5 0 -10
-5 -10 -11z"/>
<path d="M6386 3738 c12 -19 11 -112 -1 -120 -5 -4 4 -8 20 -8 17 0 25 4 18 8
-7 4 -12 32 -12 65 0 49 3 57 19 57 10 0 21 -5 23 -10 3 -6 4 -5 3 2 -1 7 -20
14 -40 16 -29 3 -36 0 -30 -10z"/>
<path d="M2946 3713 c4 -16 8 -38 8 -50 1 -13 5 -23 10 -23 4 0 6 -6 3 -13 -3
-7 3 -13 12 -14 16 -1 16 4 -3 63 -12 35 -25 64 -30 64 -4 0 -5 -12 0 -27z"/>
<path d="M5202 3708 c-10 -29 -10 -31 3 -14 13 18 14 17 21 -9 4 -18 2 -30 -7
-37 -11 -8 -9 -8 5 -4 14 5 17 2 14 -12 -3 -12 1 -18 12 -19 15 -1 14 4 -4 63
-12 35 -23 64 -26 64 -3 0 -11 -15 -18 -32z"/>
<path d="M1092 3697 c-6 -7 -7 -19 -3 -26 6 -9 10 -5 13 13 6 30 5 31 -10 13z"/>
<path d="M1745 3699 c-4 -6 -5 -12 -2 -15 2 -3 7 2 10 11 7 17 1 20 -8 4z"/>
<path d="M2255 3680 c-3 -5 -1 -10 4 -10 6 0 11 5 11 10 0 6 -2 10 -4 10 -3 0
-8 -4 -11 -10z"/>
<path d="M2670 3681 c0 -6 4 -12 8 -15 5 -3 9 1 9 9 0 8 -4 15 -9 15 -4 0 -8
-4 -8 -9z"/>
<path d="M3100 3682 c0 -6 5 -14 11 -18 6 -3 8 -17 4 -32 -5 -22 -4 -24 8 -13
8 6 13 20 10 31 -6 22 -33 49 -33 32z"/>
<path d="M478 3645 c17 -38 27 -43 35 -21 4 10 1 13 -7 10 -8 -3 -16 5 -20 20
-3 14 -10 26 -15 26 -5 0 -1 -16 7 -35z"/>
<path d="M2260 3654 c0 -17 28 -49 36 -41 4 4 -2 17 -14 30 -12 12 -22 17 -22
11z"/>
<path d="M2910 3650 c0 -5 5 -10 11 -10 5 0 7 5 4 10 -3 6 -8 10 -11 10 -2 0
-4 -4 -4 -10z"/>
<path d="M6247 3649 c7 -7 15 -10 18 -7 3 3 -2 9 -12 12 -14 6 -15 5 -6 -5z"/>
<path d="M4022 3630 c0 -14 2 -19 5 -12 2 6 2 18 0 25 -3 6 -5 1 -5 -13z"/>
<path d="M4236 3634 c-8 -20 -8 -24 2 -24 4 0 8 9 9 20 2 24 -3 26 -11 4z"/>
<path d="M5761 3632 c-7 -13 -6 -19 2 -19 7 0 13 9 13 19 0 10 -1 18 -3 18 -1
0 -7 -8 -12 -18z"/>
<path d="M1922 3625 c-11 -12 -10 -15 3 -15 8 0 15 7 15 15 0 18 -2 18 -18 0z"/>
<path d="M2420 3631 c0 -5 -8 -12 -17 -14 -14 -4 -12 -5 5 -6 13 -1 22 5 22
14 0 8 -2 15 -5 15 -3 0 -5 -4 -5 -9z"/>
<path d="M3242 3625 c-11 -12 -10 -15 3 -15 8 0 15 7 15 15 0 18 -2 18 -18 0z"/>
<path d="M5376 3625 c-3 -8 -1 -15 4 -15 6 0 10 7 10 15 0 8 -2 15 -4 15 -2 0
-6 -7 -10 -15z"/>
<path d="M1115 3620 c-3 -5 -1 -10 4 -10 6 0 11 5 11 10 0 6 -2 10 -4 10 -3 0
-8 -4 -11 -10z"/>
<path d="M3355 3620 c-19 -8 -19 -9 3 -9 12 -1 22 4 22 9 0 6 -1 10 -2 9 -2 0
-12 -4 -23 -9z"/>
<path d="M278 3613 c7 -3 16 -2 19 1 4 3 -2 6 -13 5 -11 0 -14 -3 -6 -6z"/>
<path d="M1718 3613 c7 -3 16 -2 19 1 4 3 -2 6 -13 5 -11 0 -14 -3 -6 -6z"/>
<path d="M2698 3613 c7 -3 16 -2 19 1 4 3 -2 6 -13 5 -11 0 -14 -3 -6 -6z"/>
<path d="M2908 3613 c7 -3 16 -2 19 1 4 3 -2 6 -13 5 -11 0 -14 -3 -6 -6z"/>
<path d="M3878 3613 c7 -3 16 -2 19 1 4 3 -2 6 -13 5 -11 0 -14 -3 -6 -6z"/>
<path d="M4057 3609 c7 -7 15 -10 18 -7 3 3 -2 9 -12 12 -14 6 -15 5 -6 -5z"/>
<path d="M4548 3613 c7 -3 16 -2 19 1 4 3 -2 6 -13 5 -11 0 -14 -3 -6 -6z"/>
<path d="M5028 3613 c7 -3 16 -2 19 1 4 3 -2 6 -13 5 -11 0 -14 -3 -6 -6z"/>
</g>
</svg>
